<svg xmlns="http://www.w3.org/2000/svg" width="33.232" height="33.916" viewBox="0 0 33.232 33.916">
  <g id="Layer_1" data-name="Layer 1" transform="translate(0 0.002)">
    <g id="组_2825" data-name="组 2825" transform="translate(0 -0.002)">
      <g id="组_2824" data-name="组 2824">
        <path id="路径_2515" data-name="路径 2515" d="M17.222,21.108h-.907V13.639c0-.311-.063-.476-.387-.59q-7.01-2.6-14.007-5.225c-.108-.038-.222-.063-.38-.108v.533q0,8-.013,16a.648.648,0,0,0,.457.71C4.362,25.99,6.728,27.062,9.105,28.1a.784.784,0,0,1,.59.805,8.03,8.03,0,0,0,.2,1.268c-.869-.374-1.68-.717-2.479-1.059-2.321-1-4.641-2-6.969-2.98A.618.618,0,0,1,0,25.464q.019-9.35,0-18.7a.594.594,0,0,1,.45-.659Q8.345,3.091,16.226.069a1.16,1.16,0,0,1,.761-.013c5.257,2,10.513,4.033,15.77,6.036a.611.611,0,0,1,.476.691q-.019,9.321-.006,18.648c0,.279.013.5-.33.647-3.107,1.313-6.208,2.65-9.308,3.982a1.57,1.57,0,0,1-.241.063c.076-.564.127-1.116.241-1.649.025-.133.254-.247.412-.323,2.384-1.065,4.775-2.118,7.159-3.177.171-.076.336-.152.5-.228V7.818c-.615.228-1.179.438-1.75.653Q23.8,10.744,17.7,13a.648.648,0,0,0-.507.723c.025,2.257.013,4.515.013,6.778v.609ZM2.416,6.987c.19.082.285.12.38.159q6.82,2.539,13.633,5.06a1.208,1.208,0,0,0,.761-.038q5.3-1.94,10.589-3.919c1.084-.4,2.162-.812,3.31-1.243-.159-.076-.228-.114-.311-.146-4.565-1.769-9.137-3.545-13.709-5.295a1.114,1.114,0,0,0-.717.032c-2.663,1.015-5.314,2.054-7.97,3.082C6.423,5.44,4.464,6.194,2.41,6.993Z" transform="translate(0 0.002)" fill="#fff"/>
        <path id="路径_2516" data-name="路径 2516" d="M28.423,41.7c0-1.192-.273-1.573-1.376-1.934-.285-2.765-1.452-4.16-3.532-4.2a3.435,3.435,0,0,0-2.34.843,3.794,3.794,0,0,0-1.268,3.361c-1.072.292-1.408.723-1.408,1.788v3.614c0,1.2.539,1.744,1.744,1.75q3.234.01,6.461,0a1.514,1.514,0,0,0,1.725-1.718c.006-1.173,0-2.34,0-3.513Zm-2.8-1.794H21.315A2.3,2.3,0,0,1,22.4,37.332a2.046,2.046,0,0,1,2.257.1,2.472,2.472,0,0,1,.957,2.479Z" transform="translate(-6.769 -13.014)" fill="#fff"/>
      </g>
    </g>
  </g>
</svg>
