<svg xmlns="http://www.w3.org/2000/svg" width="24" height="24" viewBox="0 0 24 24">
  <g id="认证1" transform="translate(-52.395 -52.394)">
    <path id="路径_2545" data-name="路径 2545" d="M62.665,76.067a1.746,1.746,0,0,1-2.608-.7,2.97,2.97,0,0,0-3-1.73,1.746,1.746,0,0,1-1.909-1.909,2.97,2.97,0,0,0-1.73-3,1.746,1.746,0,0,1-.7-2.608,2.97,2.97,0,0,0,0-3.46,1.746,1.746,0,0,1,.7-2.608,2.97,2.97,0,0,0,1.73-3,1.746,1.746,0,0,1,1.909-1.909,2.97,2.97,0,0,0,3-1.73,1.746,1.746,0,0,1,2.608-.7,2.97,2.97,0,0,0,3.46,0,1.746,1.746,0,0,1,2.608.7,2.97,2.97,0,0,0,3,1.73,1.746,1.746,0,0,1,1.909,1.909,2.97,2.97,0,0,0,1.73,3,1.746,1.746,0,0,1,.7,2.608,2.97,2.97,0,0,0,0,3.46,1.746,1.746,0,0,1-.7,2.608,2.97,2.97,0,0,0-1.73,3,1.746,1.746,0,0,1-1.909,1.909,2.97,2.97,0,0,0-3,1.73,1.746,1.746,0,0,1-2.608.7,2.97,2.97,0,0,0-3.46,0Z" transform="translate(0)" fill="#6100ec"/>
    <path id="路径_2546" data-name="路径 2546" d="M309.784,362.093a.8.8,0,0,1,1.189,1.074l-.055.061-6.806,6.806a.8.8,0,0,1-1.073.055l-.061-.055-3.781-3.78a.8.8,0,0,1,1.073-1.19l.061.055,3.214,3.213,6.239-6.238Z" transform="translate(-240.128 -301.382)" fill="#fff"/>
  </g>
</svg>
