<svg xmlns="http://www.w3.org/2000/svg" width="239.505" height="280.593" viewBox="0 0 239.505 280.593">
  <path id="svg_3" d="M149,235.1V266.57l-27.435,16.123L94.908,266.57V235.1l26.655,16.123ZM2.2,126.274,28.855,142.4v53.96l45.9,27.435v31.466L2.2,212.48Zm238.725,0V212.61l-73.334,42.778V223.922l45.9-27.435v-53.96ZM167.461,83.5,194.9,99.619h0v31.466L149,158.52v54.74l-26.655,16.123L95.818,213.26V158.39L48.229,130.954V99.488L75.664,83.365l45.9,27.435,45.9-27.305ZM48.229,153.579,74.884,169.7v31.466L48.229,185.045Zm146.668,0v31.466l-26.655,16.123V169.7L194.9,153.579ZM28.855,56.06,56.29,72.183,28.855,88.306v31.466L2.2,103.649V72.183Zm185.415,0,27.435,16.123v31.466L214.27,119.772V88.306L187.615,72.183Zm-92.708,0L149,72.183,121.563,88.306,94.908,72.183Zm0-53.96L194.9,44.878,168.242,61l-45.9-27.435L75.534,61,48.879,44.878,121.563,2.1Z" transform="translate(-2.2 -2.1)" fill="#777e90" opacity="0.1"/>
</svg>
