<svg id="组_658" data-name="组 658" xmlns="http://www.w3.org/2000/svg" xmlns:xlink="http://www.w3.org/1999/xlink" width="50" height="50" viewBox="0 0 50 50">
  <defs>
    <clipPath id="clip-path">
      <rect id="矩形_344" data-name="矩形 344" width="50" height="50" fill="none"/>
    </clipPath>
  </defs>
  <g id="组_647" data-name="组 647">
    <g id="组_646" data-name="组 646" clip-path="url(#clip-path)">
      <path id="路径_114" data-name="路径 114" d="M50,25A25,25,0,1,1,25,0,25,25,0,0,1,50,25" transform="translate(0 -0.001)" fill="#3772ff"/>
    </g>
  </g>
  <g id="组_649" data-name="组 649">
    <g id="组_648" data-name="组 648" clip-path="url(#clip-path)">
      <path id="路径_115" data-name="路径 115" d="M231.205,125.053h-.041a4.542,4.542,0,0,0-4.355,3.32h3.447Z" transform="translate(-201.745 -111.233)" fill="#fff"/>
    </g>
  </g>
  <g id="组_651" data-name="组 651">
    <g id="组_650" data-name="组 650" clip-path="url(#clip-path)">
      <path id="路径_116" data-name="路径 116" d="M170.694,91.423h0a4.755,4.755,0,0,0-4.514,3.327l-1.168,3.709h3.447Z" transform="translate(-146.776 -81.32)" fill="#fff"/>
    </g>
  </g>
  <g id="组_653" data-name="组 653">
    <g id="组_652" data-name="组 652" clip-path="url(#clip-path)">
      <path id="路径_117" data-name="路径 117" d="M234.176,170.127a3.989,3.989,0,0,0-3.523-4.984,3.357,3.357,0,0,0-.365-.033H225.47v3.477l3.42-.011a1.945,1.945,0,0,1,1.306.475,1.621,1.621,0,0,1,.047,2.319,2.667,2.667,0,0,1-2.253,1.217l-3.521-.008a4.8,4.8,0,0,0-4.62,3.424q-.015.05-.027.1h2.2c1.743,0,3.485-.021,5.227.008a1.385,1.385,0,0,1,1.388,1.811,2.767,2.767,0,0,1-2.605,2.141c-.949,0-2.3,0-3.54,0a4.786,4.786,0,0,0-4.579,3.329c-.018.057-.033.108-.043.15h.612c2.054,0,4.108-.014,6.162,0a7.406,7.406,0,0,0,6.7-3.814,4.948,4.948,0,0,0,.563-4.8c-.088-.2-.191-.4-.268-.555a8,8,0,0,0,2.532-4.242" transform="translate(-193.797 -146.864)" fill="#fdd333"/>
    </g>
  </g>
  <g id="组_655" data-name="组 655">
    <g id="组_654" data-name="组 654" clip-path="url(#clip-path)">
      <path id="路径_118" data-name="路径 118" d="M249.648,196.444a1.182,1.182,0,0,0-.18.014.98.98,0,0,0,.18-.014" transform="translate(-221.899 -174.735)" fill="#fff"/>
    </g>
  </g>
  <g id="组_657" data-name="组 657">
    <g id="组_656" data-name="组 656" clip-path="url(#clip-path)">
      <path id="路径_119" data-name="路径 119" d="M99.624,165.112q-4.432,0-8.863,0a4.714,4.714,0,0,0-4.555,3.449l-.01.037H93.84l-3.99,14.934a4.3,4.3,0,0,0,4.327-3.166c.593-2.175,1.342-4.924,1.8-6.622.415-1.543.816-3.09,1.193-4.642.072-.3.178-.447.4-.5h2.873l-2.286,8.555c-.567,2.123-2.61,9.57-2.61,9.57a3.855,3.855,0,0,0,4.232-2.787c.685-2.463,1.561-5.62,1.876-6.783q.462-1.7.922-3.409c.415-1.543.816-3.09,1.193-4.642.079-.325.2-.475.47-.518a1.166,1.166,0,0,1,.18-.014h.029c.924.01,2.346.017,3.656.022a4.02,4.02,0,0,0,3.9-3.011l.007-.027c.034-.13.122-.445.122-.445s-6.231,0-12.51,0" transform="translate(-76.67 -146.863)" fill="#fff"/>
    </g>
  </g>
</svg>
