<svg xmlns="http://www.w3.org/2000/svg" width="40.989" height="41.194" viewBox="0 0 40.989 41.194">
  <path id="转换视图" d="M126.322,102.549V88a2.274,2.274,0,0,0-2.254-2.254H108.9A2.274,2.274,0,0,0,106.648,88v14.551A2.274,2.274,0,0,0,108.9,104.8h15.166a2.274,2.274,0,0,0,2.254-2.254Zm-38.734,4.509a2.274,2.274,0,0,0-2.254,2.254v14.551a2.274,2.274,0,0,0,2.254,2.254h15.166a2.274,2.274,0,0,0,2.254-2.254V109.312a2.274,2.274,0,0,0-2.254-2.254Zm8.4-9.837H93.736a7.261,7.261,0,0,1,7.173-7.173h.82a.968.968,0,0,0,1.025-1.025V86.358a.968.968,0,0,0-1.025-1.025h-.82A11.9,11.9,0,0,0,89.023,97.22H86.358c-.41,0-.615.41-.615.82,0,.2,0,.2.2.41l4.509,5.124a.991.991,0,0,0,1.435,0L96.4,98.45a.623.623,0,0,0,0-.82c-.2-.2-.2-.41-.41-.41Zm19.675,17.215h2.254a7.261,7.261,0,0,1-7.173,7.173h-.82a.968.968,0,0,0-1.025,1.025V125.5a.968.968,0,0,0,1.025,1.025h.82a11.9,11.9,0,0,0,11.887-11.887H125.3a.543.543,0,0,0,.615-.615c0-.2,0-.2-.2-.41l-4.509-5.124a.991.991,0,0,0-1.435,0l-4.509,5.124a.623.623,0,0,0,0,.82c0-.2.2,0,.41,0Z" transform="translate(-85.334 -85.334)" fill="#6100ec"/>
</svg>
