<svg xmlns="http://www.w3.org/2000/svg" width="28" height="28" viewBox="0 0 28 28">
  <g id="组_2807" data-name="组 2807" transform="translate(-8862 -21292)">
    <rect id="矩形_1099" data-name="矩形 1099" width="28" height="28" transform="translate(8862 21292)" fill="#3a1515" opacity="0"/>
    <path id="svg_2" d="M15.329,22.939v2.814L12.875,27.2l-2.384-1.442V22.939l2.384,1.442ZM2.2,13.206l2.384,1.442v4.826l4.105,2.454v2.814L2.2,20.916v-7.71Zm21.351,0v7.722l-6.559,3.826V21.939L21.1,19.485V14.659l2.454-1.454ZM16.98,9.38l2.454,1.442h0v2.814L15.329,16.09v4.9l-2.384,1.442-2.372-1.442V16.078L6.317,13.624V10.81L8.77,9.368l4.105,2.454L16.98,9.38ZM6.317,15.648,8.7,17.09V19.9L6.317,18.462Zm13.118,0v2.814L17.05,19.9V17.09l2.384-1.442ZM4.584,6.926,7.038,8.368,4.584,9.81v2.814L2.2,11.182V8.368Zm16.583,0,2.454,1.442v2.814l-2.454,1.442V9.81L18.783,8.368Zm-8.292,0,2.454,1.442L12.875,9.81,10.492,8.368Zm0-4.826,6.559,3.826L17.05,7.368,12.945,4.914,8.759,7.368,6.375,5.926l6.5-3.826Z" transform="translate(8862.8 21290.9)" fill="#fff"/>
  </g>
</svg>
