<svg xmlns="http://www.w3.org/2000/svg" width="8" height="8.135" viewBox="0 0 8 8.135">
  <path id="右上角" d="M208.663,233.415a.408.408,0,0,1-.315-.135.434.434,0,0,1,0-.629l6.427-6.427-3.6.225a.527.527,0,0,1-.494-.4.489.489,0,0,1,.4-.494l4.18-.27a.741.741,0,0,1,.674.4.691.691,0,0,1-.135.764l-6.831,6.831A.408.408,0,0,1,208.663,233.415Zm7.371-2.921.18-2.382a.489.489,0,0,0-.4-.494.527.527,0,0,0-.494.4l-.18,2.382a.489.489,0,0,0,.4.494h.045A.391.391,0,0,0,216.034,230.493Z" transform="translate(-208.214 -225.28)" fill="#6100ec"/>
</svg>
