<?xml version="1.0" encoding="utf-8"?>
<!-- Generator: Adobe Illustrator 26.0.0, SVG Export Plug-In . SVG Version: 6.00 Build 0)  -->
<svg version="1.1" id="图层_1" xmlns="http://www.w3.org/2000/svg" xmlns:xlink="http://www.w3.org/1999/xlink" x="0px" y="0px"
	 viewBox="0 0 200 200" style="enable-background:new 0 0 200 200;" xml:space="preserve">
<path d="M100,6.2c-51.8,0-93.8,42-93.8,93.8s42,93.8,93.8,93.8s93.8-42,93.8-93.8S151.8,6.2,100,6.2z M180.8,93.8H156
	c-1.1-27.1-9-51-20.9-66.9C160.6,39,178.5,64.2,180.8,93.8z M143.4,93.8h-37.2V19.7C126.3,25,141.9,55.7,143.4,93.8z M93.8,19.7
	v74.1H56.6C58.1,55.7,73.7,25,93.8,19.7z M64.9,26.8c-12,16-19.8,39.9-20.9,66.9H19.2C21.5,64.2,39.4,39,64.9,26.8z M19.2,106.2H44
	c1.1,27.1,9,51,20.9,66.9C39.4,161,21.5,135.8,19.2,106.2z M56.6,106.2h37.2v74.1C73.7,175,58.1,144.3,56.6,106.2z M106.2,180.3
	v-74.1h37.2C141.9,144.3,126.3,175,106.2,180.3z M135.1,173.2c12-16,19.9-39.9,20.9-66.9h24.8C178.5,135.8,160.6,161,135.1,173.2z"
	/>
</svg>
