<svg xmlns="http://www.w3.org/2000/svg" width="18.327" height="20.197" viewBox="0 0 18.327 20.197">
  <g id="组_2841" data-name="组 2841" transform="translate(-519.912 -829.828)">
    <g id="路径_2521" data-name="路径 2521" transform="translate(528.848 832.261) rotate(31)" fill="none" stroke-linecap="round" stroke-linejoin="round">
      <path d="M-.009,3.219,4.563-.431,8.287,3.219,8.3,13.339H0Z" stroke="none"/>
      <path d="M 4.563363075256348 -0.4314632415771484 L -0.008787155151367188 3.219136238098145 L -0.0006866455078125 13.33879661560059 L 8.295352935791016 13.33879661560059 L 8.287252426147461 3.219136238098145 L 4.563363075256348 -0.4314632415771484 M 4.563031196594238 -1.931474685668945 C 4.943906784057617 -1.931474685668945 5.323296546936035 -1.787041664123535 5.613432884216309 -1.502613067626953 L 9.337323188781738 2.14798641204834 C 9.624802589416504 2.429806709289551 9.786932945251465 2.815356254577637 9.787252426147461 3.217936515808105 L 9.795352935791016 13.33759689331055 C 9.795673370361328 13.73562622070312 9.637772560119629 14.11746692657471 9.356432914733887 14.3990364074707 C 9.075102806091309 14.68059635162354 8.69338321685791 14.83879661560059 8.295352935791016 14.83879661560059 L -0.0006866455078125 14.83879661560059 C -0.8286466598510742 14.83879661560059 -1.500026702880859 14.16795635223389 -1.500686645507812 13.33999633789062 L -1.508787155151367 3.2203369140625 C -1.509146690368652 2.763736724853516 -1.30152702331543 2.331836700439453 -0.9447174072265625 2.04694652557373 L 3.627432823181152 -1.603652954101562 C 3.902345657348633 -1.823158264160156 4.233251094818115 -1.931474685668945 4.563031196594238 -1.931474685668945 Z" stroke="none" fill="#32d6cb"/>
    </g>
    <g id="椭圆_47" data-name="椭圆 47" transform="translate(528 836)" fill="none" stroke="#32d6cb" stroke-width="1">
      <circle cx="2" cy="2" r="2" stroke="none"/>
      <circle cx="2" cy="2" r="1.5" fill="none"/>
    </g>
  </g>
</svg>
