<svg id="组_659" data-name="组 659" xmlns="http://www.w3.org/2000/svg" xmlns:xlink="http://www.w3.org/1999/xlink" width="50" height="50" viewBox="0 0 50 50">
  <defs>
    <clipPath id="clip-path">
      <path id="路径_90" data-name="路径 90" d="M25,0A25,25,0,1,0,50,25,25,25,0,0,0,25,0Z" fill="none"/>
    </clipPath>
    <radialGradient id="radial-gradient" cx="0.5" cy="0.5" r="0.5" gradientTransform="matrix(1, 0, 0, -1, 0, 2)" gradientUnits="objectBoundingBox">
      <stop offset="0" stop-color="#6e3a8c"/>
      <stop offset="0.371" stop-color="#6e3a8c"/>
      <stop offset="1" stop-color="#5e3e89"/>
    </radialGradient>
    <clipPath id="clip-path-2">
      <rect id="矩形_342" data-name="矩形 342" width="50" height="50" fill="none"/>
    </clipPath>
  </defs>
  <g id="组_639" data-name="组 639" transform="translate(0 0)">
    <g id="组_638" data-name="组 638" clip-path="url(#clip-path)">
      <rect id="矩形_339" data-name="矩形 339" width="50" height="50" transform="translate(0 0)" fill="url(#radial-gradient)"/>
    </g>
  </g>
  <g id="组_641" data-name="组 641" transform="translate(0 0)">
    <g id="组_640" data-name="组 640" clip-path="url(#clip-path-2)">
      <path id="路径_91" data-name="路径 91" d="M39.115,8.4a22.449,22.449,0,0,0-11.153-4.2A22.01,22.01,0,0,0,16.34,6.316,23.475,23.475,0,0,0,13.75,7.8,24.446,24.446,0,0,0,11.392,9.63,22.441,22.441,0,0,0,9.3,11.763c-.166.184-.315.387-.475.582s-.314.387-.458.592l-.443.6-.416.624A22.562,22.562,0,0,0,3.951,25.543a21.214,21.214,0,0,1,.665-6.049c.117-.5.288-.98.438-1.469.18-.478.341-.966.552-1.433a20.526,20.526,0,0,1,1.4-2.734,21.775,21.775,0,0,1,3.9-4.748A23.646,23.646,0,0,1,13.337,7.2a23.986,23.986,0,0,1,2.67-1.551A21.781,21.781,0,0,1,21.872,3.77c.506-.1,1.019-.141,1.529-.205l.769-.054.385-.026.385-.007a19.813,19.813,0,0,1,3.077.141,20.763,20.763,0,0,1,8.624,3A20.191,20.191,0,0,1,39.115,8.4" transform="translate(-0.664 -0.584)" fill="#fff"/>
      <path id="路径_92" data-name="路径 92" d="M13.275,46.663A22.5,22.5,0,0,0,24.46,51.3a23.781,23.781,0,0,0,3.039.145,23.063,23.063,0,0,0,3.027-.264,23.689,23.689,0,0,0,2.957-.682,21.139,21.139,0,0,0,2.827-1.091,22.02,22.02,0,0,0,9.077-7.851,22.5,22.5,0,0,0,3.659-11.541,21.293,21.293,0,0,1-.7,6.144A20.533,20.533,0,0,1,47.325,39.1c-.194.484-.441.943-.665,1.414-.256.453-.5.915-.782,1.354-.267.449-.57.873-.866,1.3-.318.416-.624.837-.971,1.229a21.186,21.186,0,0,1-2.185,2.245,20.83,20.83,0,0,1-2.495,1.9,21.413,21.413,0,0,1-2.737,1.532,21.825,21.825,0,0,1-2.934,1.113,22.668,22.668,0,0,1-3.062.682,22.264,22.264,0,0,1-6.246,0,22.5,22.5,0,0,1-3.05-.673,21.567,21.567,0,0,1-2.91-1.113,21.112,21.112,0,0,1-5.146-3.427" transform="translate(-2.236 -5.056)" fill="#fff"/>
      <path id="路径_93" data-name="路径 93" d="M35.734,12.563a17.55,17.55,0,0,0-8.415-2.328h-.547l-.546.024c-.364.007-.727.052-1.089.083a17,17,0,0,0-6.2,1.96A17.471,17.471,0,0,0,17.1,13.466a17.262,17.262,0,0,0-4.422,4.775A17.571,17.571,0,0,0,10.1,26.583a15.832,15.832,0,0,1,2.079-8.638,15.309,15.309,0,0,1,1.257-1.887c.225-.305.479-.586.721-.877.26-.275.507-.564.784-.822a16.94,16.94,0,0,1,3.64-2.71,16.726,16.726,0,0,1,4.245-1.6,17.219,17.219,0,0,1,2.245-.351,17.044,17.044,0,0,1,2.267-.037,15.821,15.821,0,0,1,8.393,2.906" transform="translate(-1.699 -1.623)" fill="#fff"/>
      <path id="路径_94" data-name="路径 94" d="M18.9,44.413A17.682,17.682,0,0,0,26.608,46.9a14.287,14.287,0,0,0,2.023.029l1.009-.058c.333-.036.665-.1,1-.141l.5-.072.491-.112c.327-.078.656-.147.981-.233a17.464,17.464,0,0,0,1.9-.681l.465-.195.233-.1.224-.117.894-.467c.3-.161.57-.357.856-.533l.426-.271.4-.3a16.619,16.619,0,0,0,2.946-2.757l.639-.788.573-.838A8.166,8.166,0,0,0,42.7,38.4l.249-.442a4.016,4.016,0,0,0,.236-.452l.435-.925c.147-.309.242-.637.37-.955l.181-.481c.06-.16.1-.333.145-.492l.286-.991a16.657,16.657,0,0,1-.416,2.027c-.1.333-.174.673-.3,1l-.373.974a3.7,3.7,0,0,1-.213.476l-.231.467a8.4,8.4,0,0,1-.5.921l-.55.892-.625.841a15.96,15.96,0,0,1-2.974,2.954l-.416.324-.442.287c-.3.187-.582.392-.89.563l-.93.5-.233.124-.242.1-.485.207a18.285,18.285,0,0,1-1.989.7c-.34.083-.684.156-1.027.234l-.515.113-.523.066c-.348.04-.7.092-1.045.121l-1.051.035a12.7,12.7,0,0,1-2.1-.1,15.625,15.625,0,0,1-7.64-3.07" transform="translate(-3.184 -5.671)" fill="#fff"/>
      <path id="路径_95" data-name="路径 95" d="M25.575,12.514c.2.249,1.1,1.414,1.391,1.755a2.532,2.532,0,0,1,.61,1.793c0,1.217-.022,2.209-.012,3.314v.31c-.483-.007-1.513,0-2,0v-.244q.009-3.4.008-6.808a.234.234,0,0,1,0-.12" transform="translate(-4.307 -2.108)" fill="#fdd333"/>
      <path id="路径_96" data-name="路径 96" d="M34.369,20.648c-.665,0-1.369,0-1.944-.01l-.006-.213c-.01-.62,0-1.241,0-1.954Z" transform="translate(-5.461 -3.112)" fill="#fdd333"/>
      <path id="路径_97" data-name="路径 97" d="M27.672,32.5V26.2c0-.381,0-.381-.393-.382-.494,0-.989.02-1.48-.008-.31-.017-.38.087-.376.381.013,1.051.007,2.1.011,3.152v.674c0,.012.09,7.891.136,9.585.025-.217.05-.4.066-.589.091-1.042.173-2.085.276-3.125a.172.172,0,0,1,.024-.067.212.212,0,0,1,.369.021.2.2,0,0,1,.018.069q.076,1.789.121,3.581c.013.486,0,.972,0,1.458h.077c.107-1.306.21-2.613.333-3.917a.179.179,0,0,1,.356.008v.007c.067,1.516.118,3.033.175,4.551.064-1.174.125-2.347.17-3.52.035-1,.118-5.444.118-5.577" transform="translate(-4.283 -4.347)" fill="#fdd333"/>
      <path id="路径_98" data-name="路径 98" d="M33.167,21.628a11.631,11.631,0,0,1-1.716.139c-1.9.017-3.808-.018-5.713-.014a18.455,18.455,0,0,0-2.481.1,3.139,3.139,0,0,0-2.7,2.021,4.018,4.018,0,0,0-.225,1.921c.063.555.185,1.1.279,1.654a2.823,2.823,0,0,0,.108-.634A3.025,3.025,0,0,1,22.8,24.34a8.915,8.915,0,0,1,3.16-.571c1.293-.022,2.586-.007,3.879-.008.416,0,.416,0,.416.4,0,2.328.126,13.239.187,15.252,0,.083.012.166.019.249a.714.714,0,0,0,.062-.309c.036-.758.111-1.516.111-2.274,0-.214-.008-.455.245-.455.212,0,.228.3.236.49.078,1.685.146,3.37.217,5.056h.094c0-.8-.01-1.592,0-2.388q.016-.99.083-1.982c.013-.2.023-.511.3-.5.256.014.268.31.28.522.027.462.038.926.048,1.39q.049,2.3.092,4.6c.047-1.42.239-14.091.239-14.091v-.744a.99.99,0,0,1-.006-.111c.012-1.53,0-3.06,0-4.59,0-.665-.066-.545.554-.648a4.387,4.387,0,0,0,3.707-4.259,4.241,4.241,0,0,1-3.561,2.251" transform="translate(-3.42 -3.264)" fill="#fdd333"/>
      <path id="路径_99" data-name="路径 99" d="M29.911,30.787v.433c3.671.148,6.415.738,6.415,1.442,0,.817-3.68,1.478-8.22,1.478s-8.22-.665-8.22-1.478c0-.711,2.792-1.3,6.512-1.446v-.432c-4.839.173-8.526,1.068-8.526,2.146,0,1.2,4.583,2.177,10.234,2.177s10.234-.975,10.234-2.177c0-1.071-3.64-1.961-8.431-2.143" transform="translate(-3.011 -5.186)" fill="#fdd333"/>
      <path id="路径_100" data-name="路径 100" d="M6.445,22.484l.291-.832c.215-.609.575-.97,1.191-.753.6.21.718.741.51,1.335l-.145.416,1.035.364-.151.431Zm1.633-.326c.154-.438.061-.7-.3-.832s-.559.057-.712.492l-.125.356,1.005.354Z" transform="translate(-1.086 -3.51)" fill="#fff"/>
      <rect id="矩形_340" data-name="矩形 340" width="0.456" height="2.896" transform="translate(6.827 15.437) rotate(-61.756)" fill="#fff"/>
      <path id="路径_101" data-name="路径 101" d="M9.751,15.608l.287-.37,1.931.282.67.136.012-.016c-.249-.166-.549-.351-.8-.544l-1.067-.827.265-.343L13.342,15.7l-.287.37-1.937-.287-.665-.131-.012.015c.249.166.536.341.786.534l1.081.837-.265.342Z" transform="translate(-1.643 -2.346)" fill="#fff"/>
      <path id="路径_102" data-name="路径 102" d="M13.106,11.86l1.29-1.123.249.288-.946.824.53.608.8-.7.249.29-.8.7.614.706.979-.852.249.29L15,14.043Z" transform="translate(-2.208 -1.809)" fill="#fff"/>
      <path id="路径_103" data-name="路径 103" d="M17.276,9.164l-.731.432-.194-.328,1.858-1.1L18.4,8.5l-.734.434,1.279,2.162-.392.232Z" transform="translate(-2.755 -1.376)" fill="#fff"/>
      <path id="路径_104" data-name="路径 104" d="M20.334,7.074l.447-.149.733,1.343.438.832.015,0c-.038-.315-.073-.63-.106-.943L21.74,6.6l.381-.126.832,1.31c.159.266.317.54.48.818l.018-.007c-.054-.313-.1-.624-.155-.926l-.215-1.516L23.5,6.02l.373,2.926-.534.177-.877-1.4c-.121-.2-.23-.392-.333-.588l-.018.006c.032.221.056.442.083.673l.146,1.646-.522.174Z" transform="translate(-3.426 -1.014)" fill="#fff"/>
      <path id="路径_105" data-name="路径 105" d="M26.369,7.033c-.083-.928.375-1.532,1.116-1.6s1.309.439,1.394,1.368S28.5,8.352,27.762,8.42s-1.306-.459-1.393-1.387m2.044-.19c-.062-.678-.416-1.059-.892-1.015s-.748.485-.686,1.164.416,1.081.89,1.035.752-.507.689-1.185Z" transform="translate(-4.441 -0.914)" fill="#fff"/>
      <path id="路径_106" data-name="路径 106" d="M32.813,8.479l-.522-1.234-.465-.052L31.7,8.357l-.453-.052.323-2.876.942.106c.594.067,1.015.328.945.95a.806.806,0,0,1-.694.758l.566,1.3Zm-.946-1.65.434.049c.416.047.665-.1.7-.447s-.174-.495-.593-.542l-.433-.048Z" transform="translate(-5.263 -0.914)" fill="#fff"/>
      <path id="路径_107" data-name="路径 107" d="M36.131,6.2l.435.136L36.156,7.64h.012l1.459-.976.484.151-1.189.8.466,2.007L36.9,9.469l-.357-1.595-.582.385L35.7,9.09l-.435-.136Z" transform="translate(-5.942 -1.044)" fill="#fff"/>
      <path id="路径_108" data-name="路径 108" d="M46.81,43.814l.059.408a1.12,1.12,0,0,0-.766.353c-.231.263-.238.52-.054.684s.389.081.655-.043l.395-.186a.831.831,0,0,1,.96.059.86.86,0,0,1,0,1.217.354.354,0,0,1-.026.025,1.25,1.25,0,0,1-.855.416l-.06-.372a.917.917,0,0,0,.615-.306c.2-.221.217-.46.042-.613s-.41-.05-.634.063l-.39.185a.807.807,0,0,1-.977-.076.9.9,0,0,1-.007-1.275c.016-.016.032-.031.049-.046a1.444,1.444,0,0,1,1-.493" transform="translate(-7.666 -7.381)" fill="#fff"/>
      <path id="路径_109" data-name="路径 109" d="M45.569,48.768l-.693.538c-.509.4-1.008.5-1.408-.012a.93.93,0,0,1,.154-1.306.959.959,0,0,1,.14-.091l.344-.268-.674-.866.358-.281Zm-1.55-.608c-.367.284-.431.557-.2.86s.5.255.865-.029l.3-.232-.654-.842Z" transform="translate(-7.289 -7.83)" fill="#fff"/>
      <path id="路径_110" data-name="路径 110" d="M39.65,50l.891-.468-.165-.845.41-.213.5,3.009-.466.244-2.2-2.116.427-.225Zm.263.264.282.291c.233.234.46.478.692.725l.014-.007c-.082-.331-.149-.654-.212-.977l-.076-.4Z" transform="translate(-6.506 -8.167)" fill="#fff"/>
      <path id="路径_111" data-name="路径 111" d="M37.524,51.708a1.349,1.349,0,0,1-.685,1.78,1.231,1.231,0,0,1-.12.047,1.113,1.113,0,0,1-.894-.109l.151-.351a.765.765,0,0,0,.618.082c.477-.147.687-.647.486-1.3s-.634-.966-1.123-.816a.843.843,0,0,0-.523.481l-.318-.2a1.143,1.143,0,0,1,.739-.662,1.316,1.316,0,0,1,1.632.9,1.176,1.176,0,0,1,.035.151" transform="translate(-5.916 -8.525)" fill="#fff"/>
      <path id="路径_112" data-name="路径 112" d="M33.383,54.212l-1.7.193-.043-.378,1.246-.141-.091-.8-1.055.12-.047-.384,1.055-.12-.106-.931-1.29.146-.047-.384,1.742-.2Z" transform="translate(-5.274 -8.648)" fill="#fff"/>
      <path id="路径_113" data-name="路径 113" d="M28.957,54.478l-.874-.063c-.644-.047-1.086-.3-1.039-.951.047-.631.526-.888,1.153-.841l.435.032.08-1.093.456.033Zm-.743-1.488c-.462-.033-.7.126-.723.506s.2.523.66.557l.377.027.078-1.062Z" transform="translate(-4.556 -8.686)" fill="#fff"/>
      <rect id="矩形_341" data-name="矩形 341" width="3.051" height="0.416" transform="translate(19.969 45.348) rotate(-76.937)" fill="#fff"/>
    </g>
  </g>
</svg>
