<svg id="详情页-说明" xmlns="http://www.w3.org/2000/svg" width="13.286" height="13.286" viewBox="0 0 13.286 13.286">
  <path id="路径_47" data-name="路径 47" d="M6.421,0h.443a6.421,6.421,0,0,1,6.421,6.421v.443a6.421,6.421,0,0,1-6.421,6.421H6.421A6.421,6.421,0,0,1,0,6.864V6.421A6.421,6.421,0,0,1,6.421,0Zm.222,1.208a5.435,5.435,0,1,0,5.435,5.435A5.435,5.435,0,0,0,6.643,1.208Z" transform="translate(0 0)" fill="#6100ec"/>
  <path id="路径_48" data-name="路径 48" d="M351.306,256a2.1,2.1,0,0,1,1.458.489,1.674,1.674,0,0,1,.554,1.329,1.842,1.842,0,0,1-.341,1.135c-.083.092-.351.341-.794.729a1.431,1.431,0,0,0-.369.461,1.3,1.3,0,0,0-.139.6v.129h-1.061v-.129a1.957,1.957,0,0,1,.185-.9,5,5,0,0,1,1.08-1.172l.111-.129a1.02,1.02,0,0,0,.249-.655.9.9,0,0,0-1-.978.964.964,0,0,0-.868.379,1.5,1.5,0,0,0-.231.9h-1.052a2.106,2.106,0,0,1,.6-1.606A2.208,2.208,0,0,1,351.306,256Zm-.106,5.314a.735.735,0,0,1,.508.185.664.664,0,0,1-.008.959.715.715,0,0,1-.5.185.722.722,0,0,1-.5-.193.664.664,0,0,1,0-.951.712.712,0,0,1,.5-.185Z" transform="translate(-344.562 -252.679)" fill="#6100ec"/>
</svg>
