<svg xmlns="http://www.w3.org/2000/svg" id="ennowallet_icon_usdt" width="2000" height="2000" viewBox="0 0 2000 2000"><path id="Path_8219" data-name="Path 8219" d="M1000,0C447.733,0,0,447.667,0,1000c0,552.267,447.733,1000,1000,1000s1000-447.734,1000-1000C2000,447.667,1552.267,0,1000,0Z" fill="#4eaf94"></path><path id="Path_8220" data-name="Path 8220" d="M929.253,7.5v226H632.719V342.033c237.533,13.067,416.267,70,416.267,138.067,0,68.133-178.733,125-416.267,138.067V1007.5H414.786V617.633c-233.133-14-407.6-70.2-407.6-137.533s174.467-123.533,407.6-137.6v-109H118.319V7.5H929.252ZM632.719,366.7V498.833a2016.5,2016.5,0,0,1-217.8-.466V367.1c-200.2,10-348.4,45.933-348.4,88.667,0,50.533,206.667,91.467,461.6,91.467s461.6-40.933,461.6-91.467C989.719,412.433,837.253,376.1,632.719,366.7Z" transform="translate(471.881 492.5)" fill="#fff"></path></svg>