<svg xmlns="http://www.w3.org/2000/svg" width="10.751" height="9.621" viewBox="0 0 10.751 9.621">
  <path id="钱包" d="M43.666,85.5H35.692A1.389,1.389,0,0,0,34.3,86.892v6.844a1.389,1.389,0,0,0,1.388,1.388h7.974a1.389,1.389,0,0,0,1.388-1.388V86.892A1.389,1.389,0,0,0,43.666,85.5Zm.622,5.934h-3.1a1.129,1.129,0,1,1,0-2.258h3.1Zm0,2.3a.623.623,0,0,1-.622.622H35.692a.623.623,0,0,1-.622-.622V86.892a.62.62,0,0,1,.622-.622h7.974a.623.623,0,0,1,.622.622v1.527h-3.1a1.9,1.9,0,1,0,0,3.791h3.1ZM41.46,90.315a.5.5,0,1,1,.5.5A.5.5,0,0,1,41.46,90.315Z" transform="translate(-34.304 -85.504)" fill="#6100ec"/>
</svg>
