<?xml version="1.0" standalone="no"?><!DOCTYPE svg PUBLIC "-//W3C//DTD SVG 1.1//EN" "http://www.w3.org/Graphics/SVG/1.1/DTD/svg11.dtd"><svg t="1663742103167" class="icon" viewBox="0 0 1024 1024" version="1.1" xmlns="http://www.w3.org/2000/svg" p-id="10771" xmlns:xlink="http://www.w3.org/1999/xlink" width="200" height="200"><path d="M930.909091 651.636364h23.272727v186.181818a93.090909 93.090909 0 0 1-93.090909 93.090909H93.090909a93.090909 93.090909 0 0 1-93.090909-93.090909V186.181818a93.090909 93.090909 0 0 1 93.090909-93.090909h768a93.090909 93.090909 0 0 1 93.090909 93.090909v139.636364h-23.272727a93.090909 93.090909 0 0 1 93.090909 93.090909v139.636364a93.090909 93.090909 0 0 1-93.090909 93.090909z m-69.818182-418.909091a46.545455 46.545455 0 0 0-46.545454-46.545455H139.636364a46.545455 46.545455 0 0 0-46.545455 46.545455v558.545454a46.545455 46.545455 0 0 0 46.545455 46.545455h674.909091a46.545455 46.545455 0 0 0 46.545454-46.545455v-139.636363h-209.454545a93.090909 93.090909 0 0 1-93.090909-93.090909v-139.636364a93.090909 93.090909 0 0 1 93.090909-93.090909h209.454545v-93.090909z m69.818182 232.727272a46.545455 46.545455 0 0 0-46.545455-46.545454h-186.181818a46.545455 46.545455 0 0 0-46.545454 46.545454v46.545455a46.545455 46.545455 0 0 0 46.545454 46.545455h186.181818a46.545455 46.545455 0 0 0 46.545455-46.545455v-46.545455z m-488.727273-186.181818H162.909091a23.272727 23.272727 0 0 1 0-46.545454h279.272727a23.272727 23.272727 0 0 1 0 46.545454z" p-id="10772" fill="#ffffff"></path></svg>