<svg xmlns="http://www.w3.org/2000/svg" width="115" height="115" viewBox="0 0 115 115">
  <g id="组_1073" data-name="组 1073" transform="translate(-3066 -21234)">
    <circle id="椭圆_29" data-name="椭圆 29" cx="57.5" cy="57.5" r="57.5" transform="translate(3066 21234)" fill="#f3ba2f"/>
    <path id="svg_2" d="M38.41,59.575v7.762l-6.767,3.977-6.575-3.977V59.575l6.575,3.977ZM2.2,32.73l6.575,3.977v13.31L20.1,56.784v7.762L2.2,53.994V32.73Zm58.886,0v21.3L43,64.578V56.816l11.322-6.767V36.739l6.767-4.009ZM42.965,22.178l6.767,3.977h0v7.762L38.41,40.684v13.5l-6.575,3.977-6.543-3.977V40.652L13.554,33.884V26.123l6.767-3.977,11.322,6.767,11.322-6.735ZM13.554,39.465l6.575,3.977V51.2l-6.575-3.977Zm36.178,0v7.762L43.157,51.2V43.442l6.575-3.977ZM8.775,15.41l6.767,3.977L8.775,23.364v7.762L2.2,27.149V19.387Zm45.736,0,6.767,3.977v7.762l-6.767,3.977V23.364l-6.575-3.977Zm-22.868,0,6.767,3.977-6.767,3.977-6.575-3.977Zm0-13.31L49.732,12.652l-6.575,3.977L31.835,9.862,20.289,16.629l-6.575-3.977L31.643,2.1Z" transform="translate(3091.761 21254.795)" fill="#fff"/>
  </g>
</svg>
