<svg xmlns="http://www.w3.org/2000/svg" width="632.759" height="322.702" viewBox="0 0 632.759 322.702">
  <g id="组_1075" data-name="组 1075" transform="translate(-1029 -128.297)" opacity="0.15">
    <path id="svg_2" d="M65.972,103.321v13.669l-11.918,7-11.579-7V103.321l11.579,7ZM2.2,56.043l11.579,7V86.489L33.719,98.407v13.669L2.2,93.493V56.043Zm103.707,0V93.549L74.049,112.133V98.464L93.988,86.545V63.1l11.918-7.061ZM73.993,37.46l11.918,7h0V58.133L65.972,70.052v23.78l-11.579,7-11.523-7V70L22.2,58.077V44.407l11.918-7L54.053,49.322,73.993,37.46ZM22.2,67.905l11.579,7V88.579l-11.579-7Zm63.715,0V81.575l-11.579,7V74.909l11.579-7ZM13.779,25.541l11.918,7-11.918,7V53.219l-11.579-7V32.546Zm80.548,0,11.918,7V46.215l-11.918,7V39.55l-11.579-7Zm-40.274,0,11.918,7-11.918,7-11.579-7Zm0-23.441L85.911,20.684l-11.579,7L54.392,15.769,34.058,27.688l-11.579-7L54.053,2.1Z" transform="translate(1555.513 184.9)" fill="#ffc400" opacity="0.4"/>
    <path id="svg_2-2" data-name="svg_2" d="M46.358,72.19v9.465l-8.253,4.85-8.018-4.85V72.19l8.018,4.85ZM2.2,39.453l8.018,4.85V60.534l13.807,8.253v9.465L2.2,65.384V39.453Zm71.811,0V65.423L51.951,78.292V68.826l13.807-8.253V44.342l8.253-4.889Zm-22.1-12.868,8.253,4.85h0V40.9L46.358,49.153V65.619l-8.018,4.85-7.979-4.85V49.113L16.046,40.861V31.4l8.253-4.85L38.105,34.8l13.807-8.214ZM16.046,47.666l8.018,4.85v9.465l-8.018-4.85Zm44.119,0v9.465l-8.018,4.85V52.516l8.018-4.85ZM10.218,18.332l8.253,4.85-8.253,4.85V37.5L2.2,32.647V23.182Zm55.775,0,8.253,4.85v9.465L65.993,37.5V28.032l-8.018-4.85Zm-27.887,0,8.253,4.85-8.253,4.85-8.018-4.85Zm0-16.232,22.06,12.868-8.018,4.85L38.34,11.565,24.26,19.818l-8.018-4.85L38.105,2.1Z" transform="translate(1372.777 364.494)" fill="#ffc400" opacity="0.3"/>
    <path id="svg_2-3" data-name="svg_2" d="M39.557,61.4V69.4l-6.982,4.1-6.783-4.1V61.4l6.783,4.1ZM2.2,33.7l6.783,4.1V51.535l11.68,6.982v8.007L2.2,55.638V33.7Zm60.751,0V55.671L44.289,66.557V58.549l11.68-6.982V37.836L62.951,33.7Zm-18.7-10.886,6.982,4.1h0v8.007l-11.68,6.982v13.93l-6.783,4.1-6.75-4.1V41.873l-12.11-6.982V26.884l6.982-4.1,11.68,6.982,11.68-6.949ZM13.913,40.648l6.783,4.1v8.007l-6.783-4.1Zm37.324,0v8.007l-6.783,4.1V44.751l6.783-4.1ZM8.983,15.832l6.982,4.1-6.982,4.1v8.007L2.2,27.942V19.935Zm47.185,0,6.982,4.1v8.007l-6.982,4.1V24.038l-6.783-4.1Zm-23.592,0,6.982,4.1-6.982,4.1-6.783-4.1Zm0-13.732L51.238,12.986l-6.783,4.1-11.68-6.982L20.862,17.089l-6.783-4.1L32.576,2.1Z" transform="translate(1201.325 126.197)" fill="#ffc400" opacity="0.2"/>
    <path id="svg_2-4" data-name="svg_2" d="M87.264,137.117v18.233l-15.9,9.343-15.446-9.343V137.117l15.446,9.343ZM2.2,74.054,17.646,83.4v31.268l26.6,15.9V148.8L2.2,124.007Zm138.333,0v50.029L98.038,148.871V130.638l26.6-15.9V83.472ZM97.963,49.266l15.9,9.343h0V76.842l-26.6,15.9v31.72L71.818,133.8l-15.37-9.343v-31.8l-27.576-15.9V58.533l15.9-9.343,26.6,15.9,26.6-15.822ZM28.872,89.876l15.446,9.343v18.233L28.872,108.11Zm84.989,0V108.11l-15.446,9.343V99.219l15.446-9.343ZM17.646,33.368l15.9,9.343-15.9,9.343V70.287L2.2,60.944V42.711Zm107.441,0,15.9,9.343V60.944l-15.9,9.343V52.053l-15.446-9.343Zm-53.721,0,15.9,9.343-15.9,9.343L55.921,42.711Zm0-31.268,42.494,24.788L98.415,36.231l-26.6-15.9-27.124,15.9L29.249,26.888,71.366,2.1Z" transform="translate(1026.8 254.9)" fill="#ffc400" opacity="0.5"/>
  </g>
</svg>
