<svg xmlns="http://www.w3.org/2000/svg" width="608.636" height="317.81" viewBox="0 0 608.636 317.81">
  <g id="组_1074" data-name="组 1074" transform="translate(-5871.529 -20704.648)" opacity="0.35">
    <g id="组_710" data-name="组 710" transform="translate(5871.529 20851.664)" opacity="0.25">
      <path id="路径_125" data-name="路径 125" d="M16.5,4V53.767l42.063,18.8Z" transform="translate(25.571 -4)" fill="#547fef"/>
      <path id="路径_126" data-name="路径 126" d="M51.069,4,9,72.563l42.069-18.8Z" transform="translate(-9 -4)" fill="#547fef"/>
      <path id="路径_127" data-name="路径 127" d="M16.5,42.034V75.85L58.59,17.616Z" transform="translate(25.571 58.777)" fill="#547fef"/>
      <path id="路径_128" data-name="路径 128" d="M51.069,75.85V42.028L9,17.616Z" transform="translate(-9 58.777)" fill="#547fef"/>
      <path id="路径_129" data-name="路径 129" d="M16.5,56.08,58.561,31.657,16.5,12.872Z" transform="translate(25.571 36.905)" fill="#547fef"/>
      <path id="路径_130" data-name="路径 130" d="M9,31.657,51.069,56.08V12.872Z" transform="translate(-9 36.905)" fill="#547fef"/>
    </g>
    <g id="组_711" data-name="组 711" transform="translate(6043.165 20704.648)" opacity="0.1">
      <path id="路径_125-2" data-name="路径 125" d="M16.5,4V27.982l20.27,9.058Z" transform="translate(3.775 -4)" fill="#547fef"/>
      <path id="路径_126-2" data-name="路径 126" d="M29.273,4,9,37.04l20.273-9.058Z" transform="translate(-9 -4)" fill="#547fef"/>
      <path id="路径_127-2" data-name="路径 127" d="M16.5,29.383v16.3L36.782,17.616Z" transform="translate(3.775 19.197)" fill="#547fef"/>
      <path id="路径_128-2" data-name="路径 128" d="M29.273,45.678V29.38L9,17.616Z" transform="translate(-9 19.197)" fill="#547fef"/>
      <path id="路径_129-2" data-name="路径 129" d="M16.5,33.694l20.27-11.769L16.5,12.872Z" transform="translate(3.775 11.115)" fill="#547fef"/>
      <path id="路径_130-2" data-name="路径 130" d="M9,21.924,29.273,33.694V12.872Z" transform="translate(-9 11.115)" fill="#547fef"/>
    </g>
    <g id="组_727" data-name="组 727" transform="translate(6161.516 20902.453)" opacity="0.1">
      <path id="路径_125-3" data-name="路径 125" d="M16.5,4V48.362l37.5,16.755Z" transform="translate(21.002 -4)" fill="#547fef"/>
      <path id="路径_126-3" data-name="路径 126" d="M46.5,4,9,65.117,46.5,48.362Z" transform="translate(-9 -4)" fill="#547fef"/>
      <path id="路径_127-3" data-name="路径 127" d="M16.5,39.382V69.525l37.52-51.909Z" transform="translate(21.002 50.481)" fill="#547fef"/>
      <path id="路径_128-3" data-name="路径 128" d="M46.5,69.525V39.377L9,17.616Z" transform="translate(-9 50.481)" fill="#547fef"/>
      <path id="路径_129-3" data-name="路径 129" d="M16.5,51.387l37.5-21.771L16.5,12.872Z" transform="translate(21.002 31.499)" fill="#547fef"/>
      <path id="路径_130-3" data-name="路径 130" d="M9,29.617,46.5,51.387V12.872Z" transform="translate(-9 31.499)" fill="#547fef"/>
    </g>
    <g id="组_720" data-name="组 720" transform="translate(6353.923 20717.035)" opacity="0.4">
      <path id="路径_125-4" data-name="路径 125" d="M16.5,4V78.651l63.1,28.194Z" transform="translate(46.605 -4)" fill="#547fef"/>
      <path id="路径_126-4" data-name="路径 126" d="M72.1,4,9,106.845,72.1,78.651Z" transform="translate(-9 -4)" fill="#547fef"/>
      <path id="路径_127-4" data-name="路径 127" d="M16.5,54.243v50.724L79.636,17.616Z" transform="translate(46.605 96.975)" fill="#547fef"/>
      <path id="路径_128-4" data-name="路径 128" d="M72.1,104.967V54.235L9,17.616Z" transform="translate(-9 96.975)" fill="#547fef"/>
      <path id="路径_129-4" data-name="路径 129" d="M16.5,77.684l63.1-36.635L16.5,12.872Z" transform="translate(46.605 61.794)" fill="#547fef"/>
      <path id="路径_130-4" data-name="路径 130" d="M9,41.049,72.1,77.684V12.872Z" transform="translate(-9 61.794)" fill="#547fef"/>
    </g>
  </g>
</svg>
