<svg xmlns="http://www.w3.org/2000/svg" width="26.689" height="26.689" viewBox="0 0 26.689 26.689">
  <path id="全球" d="M157.323,143.988a19.2,19.2,0,0,1,3.26,9.357h4.823a10.938,10.938,0,0,0-8.084-9.357h0Zm-2.768.311q-.421.552-.8,1.134t-.872,1.5a18.077,18.077,0,0,0-.858,1.846,16.55,16.55,0,0,0-.668,2.139,15.263,15.263,0,0,0-.393,2.425h7.185a14.976,14.976,0,0,0-.393-2.428,16.831,16.831,0,0,0-.668-2.146,18.681,18.681,0,0,0-.853-1.843q-.485-.912-.873-1.5t-.805-1.131h0Zm10.851,11.471h-4.824a19.185,19.185,0,0,1-3.26,9.354,10.941,10.941,0,0,0,8.084-9.354h0Zm-13.619-11.782a10.939,10.939,0,0,0-8.084,9.357h4.833a19.055,19.055,0,0,1,3.251-9.357Zm6.36,11.782h-7.185a15.087,15.087,0,0,0,.394,2.428,16.868,16.868,0,0,0,.667,2.146,18.036,18.036,0,0,0,.854,1.842c.323.608.613,1.1.87,1.5s.524.761.806,1.127q.424-.55.805-1.131c.258-.4.55-.9.872-1.505a18.158,18.158,0,0,0,.853-1.842,16.472,16.472,0,0,0,.668-2.143,14.826,14.826,0,0,0,.393-2.421h0Zm-9.611,0H143.7a10.94,10.94,0,0,0,8.084,9.354,22.1,22.1,0,0,1-2.146-4.23,17.49,17.49,0,0,1-1.105-5.124Zm6.019-14.559c.227,0,.4,0,.512.011a13.17,13.17,0,0,1,3.427.582,13.534,13.534,0,0,1,3.075,1.387,13.3,13.3,0,0,1,5.871,7.9,13.295,13.295,0,0,1,0,6.929,13.253,13.253,0,0,1-8.947,9.287,13.166,13.166,0,0,1-3.427.586c-.114.007-.285.007-.512.007s-.4,0-.512-.007a13.166,13.166,0,0,1-3.427-.586,13.288,13.288,0,0,1-8.947-9.287,13.3,13.3,0,0,1,0-6.929,13.253,13.253,0,0,1,8.947-9.287,13.158,13.158,0,0,1,3.427-.582q.171-.011.512-.011Z" transform="translate(-141.211 -141.211)" fill="#777e90"/>
</svg>
