<svg xmlns="http://www.w3.org/2000/svg" width="24.103" height="26.92" viewBox="0 0 24.103 26.92">
  <path id="加油站" d="M93.472,61.472h-.313a3.443,3.443,0,0,0-3.443,3.443v9.7a1.252,1.252,0,1,1-2.5,0V59.907a1.565,1.565,0,0,0,.861-2.872L89.4,54.9l-.664-.664L85.333,57.64V74.619a3.13,3.13,0,1,0,6.26,0v-9.7a1.565,1.565,0,0,1,1.565-1.565h.313V78.375H91.907v1.878h17.529V78.375h-1.565v-21.6a3.443,3.443,0,0,0-3.443-3.443H96.915a3.443,3.443,0,0,0-3.443,3.443Zm1.878,16.9v-21.6a1.565,1.565,0,0,1,1.565-1.565h7.512a1.565,1.565,0,0,1,1.565,1.565v21.6H95.35Zm8.765-20.659H97.228V63.35h6.886Zm-1.878,1.878v1.878h-3.13V59.594Zm2.191,14.712H96.915v1.878h7.512Z" transform="translate(-85.333 -53.333)" fill="#777e90"/>
</svg>
